# xmcd CD database file
#
# Track frame offsets:
#	150
#	27410
#	53250
#	75997
#	96677
#
# Disc length: 1561 seconds
#
# Revision: 2
# Processed by: cddbd v1.5.2PL0 Copyright (c) Steve Scherf et al.
# Submitted via: CDex 1.70beta3
#
DISCID=31061705
DTITLE=広末涼子 - WINTER GIFT’98〜Happy Songs and Music Clips〜
DYEAR=1998
DGENRE=Pop
TTITLE0=なんてったって 今日はクリスマス!(once in a christmastime mix)
TTITLE1=ジーンズ(THIS IS BIG BEATZ RADIO MIX)
TTITLE2=青い空に浮かぶ月のように
TTITLE3=なんてったって 今日はクリスマス!(original version)
TTITLE4=なんてったって 今日はクリスマス!(original instrumental)
EXTD=YEAR: 1998
EXTT0=
EXTT1=
EXTT2=
EXTT3=
EXTT4=
PLAYORDER=
